<svg width="102" height="32" viewBox="0 0 102 32" fill="none" xmlns="http://www.w3.org/2000/svg">
<path d="M29.3864 22.7101C29.2429 22.3073 29.0752 21.9176 28.9157 21.5565C28.6701 21.0011 28.4129 20.4446 28.1641 19.9067L28.1444 19.864C25.9255 15.0589 23.5439 10.1881 21.0659 5.38701L20.9607 5.18316C20.7079 4.69289 20.4466 4.18596 20.1784 3.68786C19.8604 3.0575 19.4745 2.4636 19.0276 1.91668C18.5245 1.31651 17.8956 0.833822 17.1853 0.502654C16.475 0.171486 15.7005 -9.83959e-05 14.9165 4.23316e-08C14.1325 9.84805e-05 13.3581 0.171877 12.6478 0.503224C11.9376 0.834571 11.3088 1.31742 10.8059 1.91771C10.3595 2.46476 9.97383 3.05853 9.65572 3.68858C9.38521 4.19115 9.12145 4.70278 8.8664 5.19757L8.76872 5.38696C6.29061 10.1884 3.90903 15.0592 1.69015 19.8639L1.65782 19.9338C1.41334 20.463 1.16057 21.0102 0.919073 21.5563C0.75949 21.9171 0.592009 22.3065 0.448355 22.7103C0.0369063 23.8104 -0.094204 24.9953 0.0668098 26.1585C0.237562 27.334 0.713008 28.4447 1.44606 29.3804C2.17911 30.3161 3.14434 31.0444 4.24614 31.4932C5.07835 31.8299 5.96818 32.002 6.86616 32C7.14824 31.9999 7.43008 31.9835 7.71027 31.9509C8.846 31.8062 9.94136 31.4366 10.9321 30.8639C12.2317 30.1338 13.5152 29.0638 14.9173 27.5348C16.3194 29.0638 17.6029 30.1338 18.9025 30.8639C19.8932 31.4367 20.9886 31.8062 22.1243 31.9509C22.4045 31.9835 22.6864 31.9999 22.9685 32C23.8664 32.002 24.7561 31.8299 25.5883 31.4932C26.6901 31.0444 27.6554 30.3161 28.3885 29.3804C29.1216 28.4447 29.5971 27.3341 29.7679 26.1585C29.9287 24.9952 29.7976 23.8103 29.3864 22.7101ZM14.9173 24.377C13.1816 22.1769 12.0678 20.1338 11.677 18.421C11.5169 17.7792 11.4791 17.1131 11.5656 16.4573C11.6339 15.9766 11.8105 15.5176 12.0821 15.1148C12.4163 14.6814 12.8458 14.3304 13.3374 14.0889C13.829 13.8475 14.3696 13.7219 14.9175 13.7219C15.4655 13.722 16.006 13.8476 16.4976 14.0892C16.9892 14.3307 17.4186 14.6817 17.7528 15.1151C18.0244 15.5181 18.201 15.9771 18.2693 16.4579C18.3556 17.114 18.3177 17.7803 18.1573 18.4223C17.7661 20.1349 16.6526 22.1774 14.9173 24.377ZM27.7406 25.8689C27.6212 26.6908 27.2887 27.4674 26.7762 28.1216C26.2636 28.7759 25.5887 29.2852 24.8183 29.599C24.0393 29.9111 23.1939 30.0217 22.3607 29.9205C21.4946 29.8089 20.6599 29.5239 19.9069 29.0824C18.7501 28.4325 17.5791 27.4348 16.2614 25.9712C18.3591 23.3846 19.669 21.0005 20.154 18.877C20.3723 17.984 20.4196 17.0579 20.2935 16.1475C20.1791 15.3632 19.8879 14.615 19.4419 13.9593C18.9194 13.2519 18.2378 12.6768 17.452 12.2805C16.6661 11.8842 15.798 11.6777 14.9175 11.6777C14.0371 11.6777 13.1689 11.8841 12.383 12.2803C11.5971 12.6765 10.9155 13.2515 10.393 13.9589C9.94707 14.6144 9.65591 15.3624 9.5414 16.1465C9.41524 17.0566 9.4623 17.9822 9.68011 18.8749C10.1648 20.9993 11.4748 23.384 13.5732 25.9714C12.2555 27.4348 11.0845 28.4325 9.92769 29.0825C9.17468 29.5239 8.34007 29.809 7.47395 29.9205C6.64065 30.0217 5.79525 29.9111 5.0162 29.599C4.24581 29.2852 3.57092 28.7759 3.05838 28.1217C2.54585 27.4674 2.21345 26.6908 2.09411 25.8689C1.97932 25.0334 2.07701 24.1825 2.37818 23.3946C2.49266 23.0728 2.62663 22.757 2.7926 22.3818C3.0274 21.851 3.27657 21.3115 3.51759 20.7898L3.54996 20.7197C5.75643 15.9419 8.12481 11.0982 10.5894 6.32294L10.6875 6.13283C10.9384 5.64601 11.1979 5.14267 11.4597 4.6563C11.7101 4.15501 12.0132 3.68171 12.3639 3.2444C12.6746 2.86903 13.0646 2.56681 13.5059 2.35934C13.9473 2.15186 14.4291 2.04426 14.9169 2.04422C15.4047 2.04418 15.8866 2.15171 16.3279 2.35911C16.7693 2.56651 17.1593 2.86867 17.4701 3.24399C17.821 3.68097 18.1242 4.15411 18.3744 4.65538C18.6338 5.13742 18.891 5.63623 19.1398 6.11858L19.2452 6.32315C21.7097 11.0979 24.078 15.9415 26.2847 20.7201L26.3046 20.7631C26.5498 21.2936 26.8033 21.8419 27.042 22.382C27.2082 22.7577 27.3424 23.0738 27.4566 23.3944C27.7576 24.1824 27.8553 25.0333 27.7406 25.8689Z" fill="#FF385C"/>
<path d="M37.5557 4.75H41.0493V21.8491L40.7065 25H37.5557V4.75ZM50.2251 17.7227V17.9995C50.2251 19.063 50.1064 20.0386 49.8691 20.9263C49.6406 21.814 49.2935 22.583 48.8276 23.2334C48.3618 23.875 47.7817 24.376 47.0874 24.7363C46.4019 25.0879 45.5977 25.2637 44.6748 25.2637C43.7959 25.2637 43.0312 25.0923 42.3809 24.7495C41.7393 24.4067 41.1987 23.9233 40.7593 23.2993C40.3198 22.6665 39.9683 21.9238 39.7046 21.0713C39.4409 20.21 39.2432 19.2695 39.1113 18.25V17.4985C39.2432 16.4702 39.4409 15.5298 39.7046 14.6772C39.9683 13.8247 40.3198 13.082 40.7593 12.4492C41.1987 11.8164 41.7393 11.3286 42.3809 10.9858C43.0225 10.6431 43.7783 10.4717 44.6484 10.4717C45.5801 10.4717 46.3931 10.6519 47.0874 11.0122C47.7905 11.3638 48.3706 11.8647 48.8276 12.5151C49.2935 13.1567 49.6406 13.9214 49.8691 14.8091C50.1064 15.688 50.2251 16.6592 50.2251 17.7227ZM46.7314 17.9995V17.7227C46.7314 17.1162 46.6831 16.5449 46.5864 16.0088C46.4897 15.4639 46.3315 14.9849 46.1118 14.5718C45.8921 14.1587 45.5933 13.8335 45.2153 13.5962C44.8374 13.3589 44.3628 13.2402 43.7915 13.2402C43.2466 13.2402 42.7808 13.3325 42.394 13.5171C42.0161 13.7017 41.6997 13.9565 41.4448 14.2817C41.1987 14.6069 41.0054 14.9893 40.8647 15.4287C40.7329 15.8682 40.645 16.3428 40.6011 16.8525V18.9092C40.6626 19.5859 40.8076 20.1968 41.0361 20.7417C41.2646 21.2778 41.603 21.7041 42.0513 22.0205C42.5083 22.3369 43.0972 22.4951 43.8179 22.4951C44.3804 22.4951 44.8506 22.3853 45.2285 22.1655C45.6064 21.937 45.9053 21.6206 46.125 21.2163C46.3447 20.8032 46.4985 20.3242 46.5864 19.7793C46.6831 19.2344 46.7314 18.6411 46.7314 17.9995ZM56.1709 13.7808V25H52.6904V10.7354H55.96L56.1709 13.7808ZM55.6172 17.3535H54.5889C54.5977 16.3164 54.7383 15.376 55.0107 14.5322C55.2832 13.6885 55.6655 12.9634 56.1577 12.3569C56.6587 11.7505 57.252 11.2847 57.9375 10.9595C58.623 10.6343 59.3877 10.4717 60.2314 10.4717C60.917 10.4717 61.5366 10.5684 62.0903 10.7617C62.644 10.9551 63.1187 11.2627 63.5142 11.6846C63.9185 12.1064 64.2261 12.6602 64.437 13.3457C64.6567 14.0225 64.7666 14.8574 64.7666 15.8506V25H61.2598V15.8242C61.2598 15.1738 61.1631 14.6597 60.9697 14.2817C60.7852 13.9038 60.5127 13.6357 60.1523 13.4775C59.8008 13.3193 59.3657 13.2402 58.8472 13.2402C58.311 13.2402 57.8408 13.3501 57.4365 13.5698C57.041 13.7808 56.707 14.0752 56.4346 14.4531C56.1709 14.8311 55.9688 15.2661 55.8281 15.7583C55.6875 16.2505 55.6172 16.7822 55.6172 17.3535ZM67.8252 4.75H71.3188V21.8491L70.9761 25H67.8252V4.75ZM80.4946 17.7227V17.9995C80.4946 19.063 80.376 20.0386 80.1387 20.9263C79.9102 21.814 79.563 22.583 79.0972 23.2334C78.6313 23.875 78.0513 24.376 77.3569 24.7363C76.6714 25.0879 75.8672 25.2637 74.9443 25.2637C74.0654 25.2637 73.3008 25.0923 72.6504 24.7495C72.0088 24.4067 71.4683 23.9233 71.0288 23.2993C70.5894 22.6665 70.2378 21.9238 69.9741 21.0713C69.7104 20.21 69.5127 19.2695 69.3809 18.25V17.4985C69.5127 16.4702 69.7104 15.5298 69.9741 14.6772C70.2378 13.8247 70.5894 13.082 71.0288 12.4492C71.4683 11.8164 72.0088 11.3286 72.6504 10.9858C73.292 10.6431 74.0479 10.4717 74.918 10.4717C75.8496 10.4717 76.6626 10.6519 77.3569 11.0122C78.0601 11.3638 78.6401 11.8647 79.0972 12.5151C79.563 13.1567 79.9102 13.9214 80.1387 14.8091C80.376 15.688 80.4946 16.6592 80.4946 17.7227ZM77.001 17.9995V17.7227C77.001 17.1162 76.9526 16.5449 76.856 16.0088C76.7593 15.4639 76.6011 14.9849 76.3813 14.5718C76.1616 14.1587 75.8628 13.8335 75.4849 13.5962C75.1069 13.3589 74.6323 13.2402 74.061 13.2402C73.5161 13.2402 73.0503 13.3325 72.6636 13.5171C72.2856 13.7017 71.9692 13.9565 71.7144 14.2817C71.4683 14.6069 71.2749 14.9893 71.1343 15.4287C71.0024 15.8682 70.9146 16.3428 70.8706 16.8525V18.9092C70.9321 19.5859 71.0771 20.1968 71.3057 20.7417C71.5342 21.2778 71.8726 21.7041 72.3208 22.0205C72.7778 22.3369 73.3667 22.4951 74.0874 22.4951C74.6499 22.4951 75.1201 22.3853 75.498 22.1655C75.876 21.937 76.1748 21.6206 76.3945 21.2163C76.6143 20.8032 76.7681 20.3242 76.856 19.7793C76.9526 19.2344 77.001 18.6411 77.001 17.9995Z" fill="#FF385C"/>
</svg>
